<svg width="59" height="40" viewBox="0 0 59 40" fill="none" xmlns="http://www.w3.org/2000/svg">
<path fill-rule="evenodd" clip-rule="evenodd" d="M47.5687 14.8483C45.8971 6.36708 38.4483 0 29.5 0C22.3954 0 16.225 4.03167 13.1521 9.93167C5.7525 10.7183 0 16.9871 0 24.5833C0 32.7204 6.61292 39.3333 14.75 39.3333H46.7083C53.4933 39.3333 59 33.8267 59 27.0417C59 20.5517 53.9604 15.2908 47.5687 14.8483ZM46.7087 34.416H14.7503C9.31741 34.416 4.91699 30.0156 4.91699 24.5827C4.91699 19.5431 8.67824 15.3393 13.6687 14.8231L16.2991 14.5527L17.5282 12.2173C19.8637 7.71852 24.4362 4.91602 29.5003 4.91602C35.9412 4.91602 41.497 9.48851 42.7507 15.8064L43.4882 19.4939L47.2495 19.7643C51.0845 20.0102 54.0837 23.2306 54.0837 27.041C54.0837 31.0973 50.7649 34.416 46.7087 34.416ZM25.9357 22.1243H19.667L29.5003 12.291L39.3337 22.1243H33.0649V29.4993H25.9357V22.1243Z" fill="#03985C"/>
</svg>
