<svg width="162" height="24" viewBox="0 0 162 24" fill="none" xmlns="http://www.w3.org/2000/svg">
    <path
        d="M39.1572 18.7487L36.6183 7.76323H36.5695L34.0306 18.7487H30.1247L25.7305 1.80664H30.1247L32.3706 12.841H32.4194L34.9095 1.80664H38.2295L40.6708 12.8898H40.7196L43.0143 1.80664H47.4085L42.9167 18.7487H39.1572Z"
        fill="#03985C" />
    <path
        d="M57.7102 18.749V17.3819H57.6613C57.1243 18.5049 55.6107 19.1884 53.9019 19.1884C50.1424 19.1884 47.5547 16.2102 47.5547 12.4018C47.5547 8.64236 50.2889 5.61523 53.9019 5.61523C55.4643 5.61523 56.8802 6.24996 57.6613 7.42175H57.7102V6.05467H61.5185V18.749H57.7102ZM57.7102 12.353C57.7102 10.5465 56.2454 9.1306 54.4878 9.1306C52.7301 9.1306 51.363 10.5953 51.363 12.4018C51.363 14.1595 52.7789 15.6243 54.5366 15.6243C56.3431 15.6243 57.7102 14.2084 57.7102 12.353Z"
        fill="#03985C" />
    <path
        d="M69.7222 9.61885C69.7222 8.88648 69.1851 8.64236 68.5504 8.64236C67.9157 8.64236 67.4274 9.03296 67.4274 9.47238C67.4274 10.1559 68.0622 10.4977 69.8198 10.9859C72.847 11.7671 73.8234 12.9877 73.8234 14.8431C73.8234 17.4796 71.5287 19.1884 68.648 19.1884C65.7674 19.1884 63.7656 17.5772 63.4727 14.9895H67.2321C67.3298 15.7707 67.9157 16.1613 68.6969 16.1613C69.3804 16.1613 70.0151 15.7707 70.0151 15.1848C70.0151 14.4525 69.5757 14.1107 67.6715 13.5248C64.4491 12.5483 63.6191 11.2789 63.6191 9.76531C63.6191 7.22644 65.9627 5.61523 68.5504 5.61523C71.2846 5.61523 73.2375 7.1288 73.4328 9.61885H69.7222Z"
        fill="#03985C" />
    <path
        d="M76.5077 18.7487V8.93502H74.6523V6.05438H76.5077V1.80664H80.316V6.05438H82.1713V8.93502H80.316V18.7487H76.5077Z"
        fill="#03985C" />
    <path
        d="M86.5173 13.5248C86.7126 14.9895 87.9332 15.9172 89.4956 15.9172C90.5209 15.9172 91.2044 15.5266 91.7903 14.7454H95.6963C94.4757 17.5284 92.1809 19.1396 89.4956 19.1396C85.8337 19.1396 82.7578 16.1613 82.7578 12.4018C82.7578 8.74 85.6873 5.56641 89.4468 5.56641C93.2551 5.56641 96.1845 8.54469 96.1845 12.4995C96.1845 12.8901 96.1845 13.183 96.0869 13.5248H86.5173ZM92.3274 10.9859C92.0345 9.66765 90.8627 8.78881 89.3979 8.78881C88.0308 8.78881 86.8102 9.61883 86.5173 10.9859H92.3274Z"
        fill="#03985C" />
    <path d="M100.431 18.7487V5.61494H97.0625V1.80664H108.048V5.61494H104.728V18.7487H100.431Z"
        fill="#03985C" />
    <path
        d="M108.977 18.749V6.05467H112.541V7.42175H112.59C113.273 6.05466 114.298 5.61523 115.763 5.61523V9.42355C113.517 9.42355 112.785 10.3024 112.785 11.7183V18.749H108.977Z"
        fill="#03985C" />
    <path
        d="M126.698 18.749V17.3819H126.65C126.113 18.5049 124.599 19.1884 122.89 19.1884C119.131 19.1884 116.543 16.2102 116.543 12.4018C116.543 8.64236 119.277 5.61523 122.89 5.61523C124.453 5.61523 125.868 6.24996 126.65 7.42175H126.698V6.05467H130.507V18.749H126.698ZM126.698 12.353C126.698 10.5465 125.234 9.1306 123.476 9.1306C121.718 9.1306 120.351 10.5953 120.351 12.4018C120.351 14.1595 121.767 15.6243 123.525 15.6243C125.283 15.6243 126.698 14.2084 126.698 12.353Z"
        fill="#03985C" />
    <path
        d="M142.911 18.7487V17.3816H142.863C142.13 18.5534 140.861 19.1882 139.054 19.1882C135.197 19.1882 132.707 16.2099 132.707 12.4016C132.707 8.59325 135.295 5.66377 139.005 5.66377C140.47 5.66377 141.642 6.10319 142.765 7.17733V1.80664H146.573V18.7487H142.911ZM142.911 12.3039C142.911 10.5462 141.544 9.13031 139.689 9.13031C137.882 9.13031 136.467 10.4486 136.467 12.3039C136.467 14.2081 137.834 15.5751 139.64 15.5751C141.544 15.624 142.911 14.2081 142.911 12.3039Z"
        fill="#03985C" />
    <path
        d="M152.334 13.5248C152.529 14.9895 153.75 15.9172 155.312 15.9172C156.337 15.9172 157.021 15.5266 157.607 14.7454H161.513C160.292 17.5284 157.997 19.1396 155.312 19.1396C151.65 19.1396 148.574 16.1613 148.574 12.4018C148.574 8.74 151.504 5.56641 155.263 5.56641C159.071 5.56641 162.001 8.54469 162.001 12.4995C162.001 12.8901 162.001 13.183 161.903 13.5248H152.334ZM158.144 10.9859C157.851 9.66765 156.679 8.78881 155.214 8.78881C153.847 8.78881 152.627 9.61883 152.334 10.9859H158.144Z"
        fill="#03985C" />
    <path d="M11.2303 19.2852H9.375V23.5329H11.2303V19.2852Z" fill="#03985C" />
    <path
        d="M1.90416 9.17901H9.3743V1.85534C5.46834 2.19711 2.34358 5.27305 1.90416 9.17901ZM11.1808 10.9855H0V10.1067C0 4.54068 4.54067 0 10.1067 0C10.1555 0 10.2043 0 10.302 0L11.1808 0.0488274V10.9855Z"
        fill="#03985C" />
    <path
        d="M1.90416 10.9852C2.34358 15.1353 5.85894 18.3577 10.1555 18.3577C10.2043 18.3577 10.2531 18.3577 10.2531 18.3577C14.4521 18.3089 17.8698 15.0865 18.358 10.9852H1.90416ZM10.1067 20.213C4.54067 20.213 0 15.6724 0 10.1064V9.17871H20.2133V10.1064C20.2133 15.5747 15.7703 20.1154 10.2531 20.213C10.2531 20.213 10.2043 20.213 10.1067 20.213Z"
        fill="#03985C" />
</svg>
    