<svg width="263" height="67" viewBox="0 0 263 67" fill="none" xmlns="http://www.w3.org/2000/svg">
<path d="M12.619 48.5449C12.7523 48.5447 12.8191 48.6113 12.8193 48.7446L12.8204 49.6046C12.8206 49.7379 12.754 49.8047 12.6207 49.8049L8.7007 49.8107C8.64737 49.8107 8.62074 49.8375 8.62081 49.8908L8.63744 62.3508C8.63762 62.4841 8.57104 62.5509 8.43771 62.5511L7.41771 62.5526C7.28437 62.5528 7.21762 62.4862 7.21744 62.3529L7.20081 49.8929C7.20074 49.8395 7.17403 49.8129 7.1207 49.813L3.36071 49.8185C3.22737 49.8187 3.16062 49.7522 3.16044 49.6188L3.15929 48.7588C3.15911 48.6255 3.22569 48.5587 3.35902 48.5585L12.619 48.5449ZM19.4907 52.2747C20.5574 52.2732 21.4045 52.5853 22.032 53.211C22.6728 53.8367 22.9939 54.6762 22.9953 55.7296L23.0041 62.3296C23.0043 62.4629 22.9377 62.5297 22.8044 62.5299L21.7844 62.5314C21.6511 62.5316 21.5843 62.465 21.5841 62.3317L21.5757 56.0117C21.5747 55.2783 21.3473 54.6787 20.8933 54.2127C20.4527 53.7467 19.879 53.5142 19.1724 53.5152C18.439 53.5163 17.846 53.7438 17.3933 54.1978C16.9406 54.6518 16.7147 55.2455 16.7157 55.9788L16.7241 62.3388C16.7243 62.4722 16.6577 62.5389 16.5244 62.5391L15.5044 62.5406C15.3711 62.5408 15.3043 62.4743 15.3042 62.3409L15.286 48.7409C15.2858 48.6076 15.3524 48.5409 15.4857 48.5407L16.5057 48.5391C16.6391 48.539 16.7058 48.6055 16.706 48.7389L16.7123 53.4789C16.7124 53.5055 16.7191 53.5255 16.7324 53.5388C16.7591 53.5521 16.7791 53.5454 16.7924 53.5187C17.3779 52.6912 18.2774 52.2765 19.4907 52.2747ZM33.6999 55.7538C33.7537 56.127 33.781 56.5937 33.7818 57.1537L33.7826 57.7937C33.7828 57.927 33.7162 57.9938 33.5829 57.994L27.1229 58.0035C27.0696 58.0036 27.0429 58.0303 27.043 58.0836C27.0707 58.8169 27.1113 59.2902 27.1649 59.5034C27.3124 60.1032 27.6263 60.5761 28.1068 60.922C28.5873 61.268 29.2008 61.4404 29.9475 61.4393C30.5075 61.4385 31.0007 61.3111 31.427 61.0571C31.8533 60.8032 32.1862 60.4427 32.4255 59.9757C32.5054 59.8556 32.5987 59.8287 32.7054 59.8953L33.486 60.3541C33.5928 60.4206 33.6196 60.5139 33.5664 60.634C33.2339 61.2745 32.7346 61.7819 32.0684 62.1562C31.4023 62.5172 30.6358 62.6983 29.7692 62.6996C28.8225 62.6877 28.0289 62.4622 27.3883 62.0231C26.7477 61.5841 26.2869 60.9714 26.0058 60.1851C25.765 59.5455 25.6437 58.6257 25.6421 57.4257C25.6414 56.8657 25.6474 56.4123 25.6603 56.0656C25.6865 55.7056 25.7394 55.3855 25.819 55.1054C26.0445 54.2384 26.4969 53.5444 27.1763 53.0234C27.8689 52.5024 28.7019 52.2412 29.6752 52.2397C30.8885 52.2379 31.8223 52.5432 32.4764 53.1556C33.1306 53.768 33.5384 54.634 33.6999 55.7538ZM29.6769 53.4797C29.0235 53.4807 28.4771 53.6548 28.0376 54.0021C27.6113 54.3361 27.3319 54.7898 27.1994 55.3634C27.1198 55.6435 27.067 56.0969 27.0412 56.7236C27.0413 56.7769 27.068 56.8036 27.1213 56.8035L32.3013 56.7959C32.3546 56.7958 32.3813 56.7691 32.3812 56.7157C32.3537 56.1158 32.3132 55.6892 32.2595 55.4359C32.112 54.8361 31.8114 54.3632 31.3576 54.0172C30.9171 53.6579 30.3569 53.4787 29.6769 53.4797ZM45.1571 62.6569C44.2238 62.6583 43.4035 62.4795 42.6964 62.1205C41.9892 61.7482 41.4352 61.229 41.0343 60.563C40.6467 59.8969 40.4524 59.1305 40.4512 58.2638L40.4439 52.7438C40.4427 51.8772 40.635 51.1102 41.0208 50.443C41.4199 49.7757 41.9725 49.2616 42.6787 48.9005C43.3849 48.5262 44.2046 48.3383 45.138 48.3369C46.058 48.3355 46.8716 48.5143 47.5787 48.8733C48.2992 49.2322 48.8532 49.7381 49.2407 50.3909C49.6282 51.0303 49.8226 51.7567 49.8236 52.57L49.824 52.83C49.8242 52.9633 49.7576 53.0301 49.6243 53.0303L48.6043 53.0318C48.4709 53.032 48.4042 52.9654 48.404 52.8321L48.4037 52.5921C48.4025 51.6988 48.1015 50.9725 47.5008 50.4134C46.9133 49.8543 46.1263 49.5754 45.1396 49.5769C44.153 49.5784 43.36 49.8662 42.7608 50.4404C42.1616 51.0146 41.8626 51.7684 41.8638 52.7017L41.8713 58.3017C41.8725 59.2351 42.1802 59.9879 42.7943 60.5604C43.4084 61.1328 44.2154 61.4183 45.2154 61.4168C46.1888 61.4154 46.9618 61.1476 47.5344 60.6134C48.1203 60.0792 48.4127 59.3654 48.4115 58.4721L48.4091 56.6521C48.409 56.5988 48.3823 56.5721 48.329 56.5722L45.389 56.5765C45.2556 56.5767 45.1889 56.5102 45.1887 56.3768L45.1876 55.5368C45.1874 55.4035 45.254 55.3367 45.3873 55.3365L49.6273 55.3303C49.7607 55.3301 49.8274 55.3967 49.8276 55.53L49.831 58.11C49.8329 59.5367 49.4078 60.6506 48.5555 61.4519C47.7166 62.2531 46.5838 62.6548 45.1571 62.6569ZM53.0825 62.4852C52.9492 62.4854 52.8824 62.4188 52.8822 62.2855L52.8641 48.6855C52.8639 48.5522 52.9305 48.4854 53.0638 48.4852L54.0838 48.4837C54.2171 48.4835 54.2839 48.5501 54.2841 48.6834L54.3022 62.2834C54.3024 62.4167 54.2358 62.4835 54.1025 62.4837L53.0825 62.4852ZM61.3521 62.633C60.3921 62.6344 59.5651 62.389 58.8711 61.8967C58.1771 61.4043 57.6962 60.7251 57.4284 59.8588C57.2409 59.2457 57.1465 58.4259 57.1451 57.3992C57.1437 56.3725 57.236 55.5591 57.4218 54.9588C57.674 54.1051 58.1465 53.431 58.8391 52.9367C59.5318 52.4423 60.3715 52.1944 61.3581 52.193C62.3048 52.1916 63.1185 52.437 63.7991 52.9294C64.4931 53.4217 64.9673 54.0876 65.2218 54.9273C65.4092 55.5003 65.5037 56.3202 65.5051 57.3869C65.5065 58.4669 65.4143 59.287 65.2284 59.8473C64.9762 60.7143 64.5038 61.395 63.8111 61.8894C63.1317 62.3837 62.3121 62.6316 61.3521 62.633ZM61.3504 61.393C61.9904 61.3921 62.5369 61.2179 62.9897 60.8706C63.4426 60.5099 63.7486 60.0295 63.9078 59.4292C64.0272 58.949 64.0863 58.2756 64.0851 57.409C64.0839 56.529 64.0297 55.8557 63.9224 55.3892C63.7616 54.7894 63.4476 54.3166 62.9805 53.9706C62.5267 53.6113 61.9731 53.4321 61.3198 53.433C60.6665 53.434 60.1134 53.6148 59.6605 53.9755C59.2077 54.3228 58.9016 54.7966 58.7424 55.3968C58.6364 55.8637 58.5839 56.5371 58.5851 57.4171C58.5863 58.2971 58.6405 58.9703 58.7478 59.4368C58.8953 60.0366 59.1959 60.5162 59.6497 60.8755C60.1169 61.2215 60.6838 61.394 61.3504 61.393ZM76.1602 54.9111C76.321 55.5109 76.4021 56.3374 76.4035 57.3908C76.405 58.4841 76.3128 59.3309 76.1269 59.9312C75.8747 60.7582 75.4356 61.4122 74.8095 61.8931C74.1835 62.3741 73.4038 62.6152 72.4705 62.6166C71.9372 62.6174 71.4504 62.5114 71.0101 62.2987C70.5698 62.0861 70.2027 61.7799 69.9089 61.3804C69.8955 61.3537 69.8755 61.3471 69.8488 61.3605C69.8222 61.3605 69.8088 61.3738 69.8089 61.4005L69.81 62.2605C69.8102 62.3938 69.7436 62.4606 69.6103 62.4608L68.5903 62.4623C68.457 62.4625 68.3902 62.3959 68.39 62.2626L68.3719 48.6626C68.3717 48.5293 68.4383 48.4625 68.5716 48.4623L69.5916 48.4608C69.7249 48.4606 69.7917 48.5272 69.7919 48.6605L69.7982 53.3805C69.7982 53.4072 69.8049 53.4272 69.8183 53.4405C69.8449 53.4405 69.8716 53.4271 69.8982 53.4004C70.191 53.0133 70.5573 52.7127 70.997 52.4988C71.4367 52.2848 71.9232 52.1774 72.4566 52.1766C73.4032 52.1752 74.1969 52.4207 74.8376 52.9131C75.4782 53.3921 75.9191 54.0582 76.1602 54.9111ZM74.6268 59.8134C74.7597 59.5332 74.8526 59.2197 74.9055 58.873C74.9584 58.5129 74.9844 58.0195 74.9835 57.3929C74.9827 56.7395 74.942 56.2329 74.8615 55.8731C74.7943 55.4998 74.6806 55.1667 74.5202 54.8736C74.3462 54.4338 74.0658 54.0809 73.6788 53.8148C73.2917 53.5487 72.8316 53.416 72.2982 53.4168C71.7916 53.4176 71.3517 53.5582 70.9788 53.8388C70.6191 54.106 70.3596 54.4664 70.2002 54.9199C70.0673 55.2001 69.9677 55.5203 69.9015 55.8804C69.8487 56.2404 69.8227 56.7472 69.8235 57.4005C69.8244 58.0405 69.8517 58.5404 69.9055 58.9004C69.9727 59.2469 70.0664 59.5601 70.1868 59.84C70.3608 60.3064 70.6279 60.6793 70.9883 60.9588C71.3487 61.2382 71.7955 61.3776 72.3288 61.3768C72.8888 61.376 73.3687 61.2353 73.7683 60.9547C74.1812 60.6741 74.4674 60.2936 74.6268 59.8134ZM82.7945 52.1613C83.9945 52.1596 84.9216 52.4649 85.5757 53.0772C86.2299 53.6896 86.5577 54.5025 86.559 55.5158L86.568 62.2358C86.5682 62.3691 86.5016 62.4359 86.3682 62.4361L85.3482 62.4376C85.2149 62.4378 85.1482 62.3712 85.148 62.2379L85.1469 61.4179C85.1468 61.3912 85.1335 61.3712 85.1068 61.3579C85.0935 61.3446 85.0735 61.3513 85.0468 61.378C84.714 61.7785 84.2811 62.0858 83.7481 62.2999C83.215 62.5007 82.6218 62.6016 81.9685 62.6026C81.0218 62.604 80.2281 62.3651 79.5875 61.8861C78.9469 61.407 78.6259 60.6742 78.6246 59.6875C78.6232 58.6875 78.9822 57.9003 79.7014 57.3259C80.434 56.7382 81.4469 56.4433 82.7402 56.4414L85.0602 56.438C85.1136 56.4379 85.1402 56.4112 85.1401 56.3579L85.1391 55.5979C85.1382 54.9179 84.9442 54.3848 84.557 53.9987C84.1831 53.5993 83.5962 53.4002 82.7962 53.4013C82.1562 53.4023 81.6364 53.5297 81.2367 53.7836C80.837 54.0242 80.5908 54.3646 80.4981 54.8047C80.4582 54.9381 80.3783 54.9982 80.2583 54.9851L79.1781 54.8467C79.0314 54.8202 78.9713 54.767 78.9979 54.6869C79.1036 53.9401 79.5028 53.3329 80.1955 52.8652C80.8882 52.3975 81.7545 52.1629 82.7945 52.1613ZM82.2468 61.3822C83.0335 61.381 83.7132 61.1867 84.2861 60.7992C84.8589 60.3983 85.1448 59.8646 85.1439 59.1979L85.1418 57.6379C85.1418 57.5846 85.1151 57.5579 85.0617 57.558L82.9617 57.5611C82.0817 57.5624 81.3753 57.7434 80.8425 58.1042C80.3096 58.465 80.0436 58.9654 80.0445 59.6054C80.0452 60.1921 80.2458 60.6384 80.6462 60.9445C81.06 61.2372 81.5935 61.3831 82.2468 61.3822ZM89.7231 62.4311C89.5898 62.4313 89.523 62.3648 89.5228 62.2314L89.5047 48.6314C89.5045 48.4981 89.5711 48.4313 89.7044 48.4311L90.7244 48.4296C90.8577 48.4294 90.9245 48.496 90.9247 48.6293L90.9428 62.2293C90.943 62.3627 90.8764 62.4294 90.7431 62.4296L89.7231 62.4311ZM101.156 62.4143C101.05 62.4144 100.976 62.3612 100.936 62.2546L97.078 48.6403L97.0579 48.5803C97.0577 48.4736 97.1243 48.4202 97.2577 48.42L98.3177 48.4184C98.4377 48.4183 98.5111 48.4715 98.5379 48.5781L101.593 59.5336C101.606 59.5603 101.619 59.5736 101.633 59.5736C101.659 59.5735 101.679 59.5602 101.693 59.5335L104.498 48.5893C104.524 48.4693 104.598 48.4092 104.718 48.409L105.798 48.4074C105.918 48.4072 105.991 48.4671 106.018 48.5871L108.972 59.5227C108.986 59.5494 108.999 59.5627 109.013 59.5627C109.039 59.5626 109.059 59.5493 109.072 59.5226L112.098 48.5581C112.124 48.4514 112.198 48.398 112.318 48.3978L113.338 48.3963C113.404 48.3962 113.451 48.4161 113.478 48.4561C113.518 48.496 113.531 48.5493 113.518 48.616L109.756 62.2416C109.73 62.3483 109.656 62.4017 109.536 62.4019L108.476 62.4035C108.356 62.4036 108.283 62.3437 108.256 62.2238L105.321 51.0281C105.308 51.0015 105.288 50.9882 105.261 50.9882C105.248 50.9882 105.234 51.0016 105.221 51.0283L102.376 62.2325C102.363 62.3525 102.29 62.4126 102.156 62.4128L101.156 62.4143ZM118.224 52.1091C119.424 52.1073 120.351 52.4126 121.005 53.025C121.66 53.6373 121.987 54.4502 121.989 55.4635L121.998 62.1835C121.998 62.3168 121.931 62.3836 121.798 62.3838L120.778 62.3853C120.645 62.3855 120.578 62.3189 120.578 62.1856L120.577 61.3656C120.576 61.3389 120.563 61.319 120.536 61.3057C120.523 61.2924 120.503 61.299 120.476 61.3258C120.144 61.7262 119.711 62.0336 119.178 62.2477C118.645 62.4485 118.051 62.5493 117.398 62.5503C116.451 62.5517 115.658 62.3129 115.017 61.8338C114.377 61.3548 114.056 60.6219 114.054 59.6352C114.053 58.6352 114.412 57.848 115.131 57.2736C115.864 56.6859 116.877 56.3911 118.17 56.3892L120.49 56.3857C120.543 56.3856 120.57 56.3589 120.57 56.3056L120.569 55.5456C120.568 54.8656 120.374 54.3326 119.987 53.9465C119.613 53.547 119.026 53.3479 118.226 53.3491C117.586 53.35 117.066 53.4774 116.666 53.7314C116.267 53.972 116.02 54.3123 115.928 54.7525C115.888 54.8858 115.808 54.946 115.688 54.9328L114.608 54.7944C114.461 54.768 114.401 54.7147 114.428 54.6347C114.533 53.8878 114.932 53.2806 115.625 52.8129C116.318 52.3452 117.184 52.1106 118.224 52.1091ZM117.676 61.3299C118.463 61.3287 119.143 61.1344 119.716 60.7469C120.289 60.346 120.574 59.8123 120.574 59.1456L120.571 57.5856C120.571 57.5323 120.545 57.5056 120.491 57.5057L118.391 57.5088C117.511 57.5101 116.805 57.6912 116.272 58.052C115.739 58.4127 115.473 58.9131 115.474 59.5531C115.475 60.1398 115.675 60.5862 116.076 60.8922C116.49 61.185 117.023 61.3308 117.676 61.3299ZM128.273 62.4743C127.526 62.4754 126.859 62.3563 126.272 62.1172C125.699 61.878 125.252 61.5587 124.931 61.1592C124.624 60.7596 124.47 60.3132 124.469 59.8199L124.469 59.5799C124.469 59.4465 124.535 59.3798 124.669 59.3796L125.629 59.3781C125.762 59.378 125.829 59.4445 125.829 59.5779L125.829 59.7379C125.83 60.1779 126.057 60.5642 126.511 60.8968C126.978 61.2162 127.558 61.3753 128.251 61.3743C128.945 61.3733 129.505 61.2191 129.931 60.9118C130.357 60.5912 130.57 60.1909 130.569 59.7109C130.569 59.3775 130.455 59.1044 130.228 58.8914C130.014 58.6783 129.754 58.5121 129.447 58.3925C129.154 58.2729 128.694 58.1203 128.067 57.9345C127.32 57.7223 126.706 57.5099 126.226 57.2973C125.746 57.0846 125.339 56.7919 125.005 56.4191C124.684 56.0329 124.524 55.5464 124.523 54.9598C124.522 54.1064 124.854 53.426 125.52 52.9183C126.186 52.4107 127.066 52.156 128.159 52.1544C128.892 52.1533 129.539 52.2724 130.1 52.5115C130.673 52.7507 131.114 53.0834 131.421 53.5096C131.728 53.9225 131.882 54.3889 131.883 54.9089L131.883 54.9689C131.883 55.1022 131.816 55.169 131.683 55.1692L130.743 55.1706C130.61 55.1708 130.543 55.1042 130.543 54.9709L130.543 54.9109C130.542 54.4576 130.322 54.0779 129.881 53.7719C129.454 53.4658 128.874 53.3134 128.141 53.3144C127.461 53.3154 126.914 53.4562 126.501 53.7369C126.088 54.0041 125.882 54.3778 125.883 54.8578C125.883 55.3111 126.084 55.6575 126.484 55.8969C126.884 56.1363 127.505 56.3754 128.345 56.6141C129.119 56.8397 129.746 57.0521 130.226 57.2514C130.706 57.4507 131.12 57.7434 131.467 58.1295C131.814 58.5024 131.988 58.9954 131.989 59.6088C131.99 60.4754 131.651 61.1693 130.972 61.6903C130.293 62.2113 129.393 62.4726 128.273 62.4743ZM139.09 53.2183C139.09 53.3516 139.023 53.4184 138.89 53.4186L136.63 53.4219C136.577 53.422 136.55 53.4487 136.55 53.502L136.558 59.402C136.559 60.042 136.7 60.4951 136.98 60.7614C137.274 61.0143 137.727 61.1403 138.34 61.1394L138.84 61.1387C138.974 61.1385 139.041 61.205 139.041 61.3384L139.042 62.1584C139.042 62.2917 138.975 62.3585 138.842 62.3587C138.682 62.3722 138.435 62.3793 138.102 62.3797C137.142 62.3812 136.415 62.2022 135.921 61.843C135.428 61.4837 135.18 60.8174 135.179 59.8441L135.17 53.5041C135.17 53.4507 135.143 53.4241 135.09 53.4242L133.87 53.426C133.737 53.4262 133.67 53.3596 133.67 53.2263L133.669 52.4463C133.669 52.3129 133.735 52.2462 133.869 52.246L135.089 52.2442C135.142 52.2441 135.169 52.2174 135.168 52.1641L135.165 49.8441C135.165 49.7107 135.232 49.644 135.365 49.6438L136.345 49.6423C136.478 49.6421 136.545 49.7087 136.545 49.842L136.548 52.162C136.549 52.2154 136.575 52.242 136.629 52.2419L138.889 52.2386C139.022 52.2384 139.089 52.3049 139.089 52.4383L139.09 53.2183ZM149.305 55.5832C149.359 55.9565 149.386 56.4231 149.387 56.9831L149.388 57.6231C149.388 57.7564 149.322 57.8232 149.188 57.8234L142.728 57.8329C142.675 57.833 142.648 57.8597 142.648 57.913C142.676 58.6463 142.717 59.1196 142.77 59.3329C142.918 59.9326 143.232 60.4055 143.712 60.7515C144.193 61.0974 144.806 61.2699 145.553 61.2688C146.113 61.2679 146.606 61.1405 147.032 60.8866C147.459 60.6326 147.791 60.2721 148.031 59.8051C148.111 59.685 148.204 59.6582 148.311 59.7247L149.091 60.1835C149.198 60.25 149.225 60.3433 149.172 60.4634C148.839 61.1039 148.34 61.6113 147.674 61.9856C147.008 62.3466 146.241 62.5277 145.375 62.529C144.428 62.5171 143.634 62.2916 142.994 61.8525C142.353 61.4135 141.892 60.8008 141.611 60.0146C141.37 59.3749 141.249 58.4551 141.247 57.2551C141.247 56.6951 141.253 56.2418 141.266 55.8951C141.292 55.535 141.345 55.215 141.424 54.9348C141.65 54.0678 142.102 53.3738 142.782 52.8528C143.474 52.3318 144.307 52.0706 145.281 52.0691C146.494 52.0674 147.428 52.3726 148.082 52.985C148.736 53.5974 149.144 54.4634 149.305 55.5832ZM145.282 53.3091C144.629 53.3101 144.082 53.4842 143.643 53.8316C143.217 54.1655 142.937 54.6193 142.805 55.1928C142.725 55.4729 142.672 55.9263 142.647 56.553C142.647 56.6064 142.673 56.633 142.727 56.6329L147.907 56.6253C147.96 56.6252 147.987 56.5985 147.987 56.5452C147.959 55.9452 147.918 55.5186 147.865 55.2653C147.717 54.6656 147.417 54.1927 146.963 53.8467C146.522 53.4873 145.962 53.3081 145.282 53.3091ZM165.564 48.4592C165.63 48.3658 165.71 48.319 165.804 48.3189L166.844 48.3173C166.977 48.3171 167.044 48.3837 167.044 48.517L167.062 62.117C167.062 62.2503 166.996 62.3171 166.862 62.3173L165.842 62.3188C165.709 62.319 165.642 62.2524 165.642 62.1191L165.627 50.9991C165.627 50.9591 165.614 50.9325 165.587 50.9192C165.56 50.9059 165.54 50.9192 165.527 50.9593L162.274 55.9641C162.207 56.0575 162.127 56.1043 162.034 56.1044L161.514 56.1052C161.421 56.1053 161.341 56.0655 161.274 55.9856L158.007 51.0304C157.994 50.9904 157.974 50.9771 157.947 50.9905C157.92 51.0038 157.907 51.0305 157.907 51.0705L157.922 62.1305C157.922 62.2638 157.856 62.3306 157.722 62.3308L156.702 62.3323C156.569 62.3325 156.502 62.2659 156.502 62.1326L156.484 48.5326C156.484 48.3993 156.55 48.3325 156.684 48.3323L157.724 48.3308C157.83 48.3306 157.91 48.3705 157.964 48.4504L161.731 54.1449C161.745 54.1582 161.765 54.1648 161.791 54.1648C161.818 54.1647 161.838 54.158 161.851 54.1447L165.564 48.4592ZM174.005 52.0268C175.205 52.025 176.132 52.3303 176.787 52.9427C177.441 53.555 177.768 54.3679 177.77 55.3812L177.779 62.1012C177.779 62.2345 177.712 62.3013 177.579 62.3015L176.559 62.303C176.426 62.3032 176.359 62.2366 176.359 62.1033L176.358 61.2833C176.358 61.2566 176.344 61.2367 176.318 61.2234C176.304 61.21 176.284 61.2167 176.258 61.2434C175.925 61.6439 175.492 61.9512 174.959 62.1654C174.426 62.3662 173.833 62.467 173.179 62.468C172.233 62.4694 171.439 62.2306 170.798 61.7515C170.158 61.2724 169.837 60.5396 169.835 59.5529C169.834 58.5529 170.193 57.7657 170.912 57.1913C171.645 56.6036 172.658 56.3088 173.951 56.3068L176.271 56.3034C176.324 56.3033 176.351 56.2766 176.351 56.2233L176.35 55.4633C176.349 54.7833 176.155 54.2503 175.768 53.8642C175.394 53.4647 174.807 53.2656 174.007 53.2668C173.367 53.2677 172.847 53.3951 172.448 53.6491C172.048 53.8897 171.802 54.23 171.709 54.6702C171.669 54.8035 171.589 54.8637 171.469 54.8505L170.389 54.7121C170.242 54.6856 170.182 54.6324 170.209 54.5524C170.314 53.8055 170.714 53.1983 171.406 52.7306C172.099 52.2629 172.965 52.0283 174.005 52.0268ZM173.458 61.2476C174.244 61.2464 174.924 61.0521 175.497 60.6646C176.07 60.2637 176.356 59.73 176.355 59.0633L176.353 57.5033C176.353 57.45 176.326 57.4233 176.273 57.4234L174.173 57.4265C173.293 57.4278 172.586 57.6089 172.053 57.9696C171.52 58.3304 171.254 58.8308 171.255 59.4708C171.256 60.0575 171.457 60.5039 171.857 60.8099C172.271 61.1027 172.804 61.2485 173.458 61.2476ZM184.8 52.0708C185.24 52.0702 185.62 52.1563 185.941 52.3291C186.047 52.3823 186.087 52.4689 186.061 52.589L185.842 53.5693C185.802 53.7027 185.716 53.7428 185.582 53.6897C185.356 53.5967 185.096 53.5504 184.802 53.5508L184.542 53.5712C183.849 53.5989 183.276 53.8597 182.823 54.3538C182.371 54.8344 182.145 55.4481 182.146 56.1948L182.154 62.0947C182.154 62.2281 182.087 62.2948 181.954 62.295L180.934 62.2965C180.801 62.2967 180.734 62.2302 180.734 62.0968L180.721 52.3769C180.72 52.2435 180.787 52.1768 180.92 52.1766L181.94 52.1751C182.074 52.1749 182.14 52.2414 182.141 52.3748L182.142 53.5948C182.142 53.6348 182.149 53.6614 182.162 53.6747C182.189 53.6747 182.209 53.6613 182.222 53.6346C182.502 53.1409 182.855 52.7604 183.281 52.4931C183.72 52.2124 184.227 52.0717 184.8 52.0708ZM188.219 62.2858C188.086 62.286 188.019 62.2194 188.019 62.0861L188.001 48.4861C188 48.3528 188.067 48.286 188.2 48.2858L189.22 48.2843C189.354 48.2841 189.42 48.3507 189.421 48.484L189.432 56.664C189.432 56.6907 189.438 56.7107 189.452 56.724C189.478 56.7373 189.505 56.7306 189.532 56.7039L193.766 52.2576C193.832 52.1908 193.912 52.1574 194.006 52.1572L195.206 52.1555C195.286 52.1554 195.339 52.1819 195.366 52.2352C195.392 52.2885 195.379 52.3419 195.326 52.3953L192.77 55.2391C192.743 55.2658 192.736 55.2991 192.75 55.3391L195.819 62.0346L195.839 62.1146C195.839 62.2212 195.779 62.2746 195.659 62.2748L194.579 62.2764C194.472 62.2766 194.399 62.2233 194.359 62.1167L191.771 56.2806C191.744 56.2273 191.711 56.2206 191.671 56.2607L189.474 58.5839C189.447 58.6106 189.434 58.644 189.434 58.684L189.439 62.084C189.439 62.2173 189.372 62.2841 189.239 62.2843L188.219 62.2858ZM205.418 55.5004C205.472 55.8737 205.5 56.3403 205.5 56.9003L205.501 57.5403C205.501 57.6736 205.435 57.7404 205.301 57.7406L198.841 57.7501C198.788 57.7502 198.761 57.7769 198.762 57.8302C198.789 58.5635 198.83 59.0368 198.883 59.2501C199.031 59.8498 199.345 60.3227 199.825 60.6687C200.306 61.0146 200.919 61.1871 201.666 61.186C202.226 61.1851 202.719 61.0577 203.146 60.8038C203.572 60.5498 203.905 60.1893 204.144 59.7223C204.224 59.6022 204.317 59.5754 204.424 59.6419L205.205 60.1007C205.311 60.1672 205.338 60.2605 205.285 60.3806C204.952 61.0211 204.453 61.5285 203.787 61.9028C203.121 62.2638 202.354 62.4449 201.488 62.4462C200.541 62.4343 199.747 62.2088 199.107 61.7697C198.466 61.3307 198.005 60.718 197.724 59.9318C197.484 59.2921 197.362 58.3723 197.361 57.1723C197.36 56.6123 197.366 56.159 197.379 55.8123C197.405 55.4522 197.458 55.1322 197.538 54.852C197.763 53.985 198.216 53.291 198.895 52.77C199.587 52.249 200.42 51.9878 201.394 51.9863C202.607 51.9846 203.541 52.2898 204.195 52.9022C204.849 53.5146 205.257 54.3807 205.418 55.5004ZM201.395 53.2263C200.742 53.2273 200.196 53.4015 199.756 53.7488C199.33 54.0827 199.051 54.5365 198.918 55.11C198.838 55.3901 198.786 55.8435 198.76 56.4702C198.76 56.5236 198.787 56.5502 198.84 56.5501L204.02 56.5425C204.073 56.5424 204.1 56.5157 204.1 56.4624C204.072 55.8624 204.032 55.4358 203.978 55.1825C203.831 54.5828 203.53 54.1099 203.076 53.7639C202.636 53.4045 202.075 53.2253 201.395 53.2263ZM212.723 53.1096C212.723 53.243 212.656 53.3097 212.523 53.3099L210.263 53.3133C210.21 53.3133 210.183 53.34 210.183 53.3934L210.191 59.2934C210.192 59.9334 210.332 60.3865 210.613 60.6528C210.906 60.9057 211.36 61.0317 211.973 61.0307L212.473 61.03C212.607 61.0298 212.673 61.0964 212.673 61.2297L212.675 62.0497C212.675 62.183 212.608 62.2498 212.475 62.25C212.315 62.2636 212.068 62.2706 211.735 62.2711C210.775 62.2725 210.048 62.0936 209.554 61.7343C209.06 61.375 208.813 60.7087 208.811 59.7354L208.803 53.3954C208.803 53.3421 208.776 53.3155 208.723 53.3155L207.503 53.3173C207.37 53.3175 207.303 53.251 207.303 53.1176L207.302 52.3376C207.301 52.2043 207.368 52.1375 207.501 52.1373L208.721 52.1355C208.775 52.1355 208.801 52.1088 208.801 52.0554L208.798 49.7354C208.798 49.6021 208.865 49.5353 208.998 49.5351L209.978 49.5337C210.111 49.5335 210.178 49.6001 210.178 49.7334L210.181 52.0534C210.181 52.1067 210.208 52.1333 210.261 52.1333L212.521 52.1299C212.655 52.1297 212.721 52.1963 212.722 52.3296L212.723 53.1096ZM223.33 54.634C223.531 55.2737 223.632 56.1202 223.633 57.1735C223.635 58.2402 223.549 59.067 223.377 59.6539C223.138 60.5076 222.699 61.1816 222.059 61.6759C221.433 62.1568 220.64 62.398 219.68 62.3994C219.16 62.4001 218.68 62.3009 218.24 62.1015C217.799 61.8888 217.432 61.5894 217.139 61.2031C217.112 61.1765 217.085 61.1699 217.059 61.1832C217.045 61.1833 217.039 61.1966 217.039 61.2233L217.045 65.9233C217.045 66.0566 216.978 66.1234 216.845 66.1236L215.825 66.1251C215.692 66.1253 215.625 66.0587 215.625 65.9254L215.607 52.3254C215.607 52.192 215.673 52.1253 215.806 52.1251L216.826 52.1236C216.96 52.1234 217.027 52.1899 217.027 52.3233L217.028 53.1633C217.028 53.1899 217.035 53.2099 217.048 53.2233C217.075 53.2232 217.101 53.2098 217.128 53.1831C217.421 52.796 217.78 52.4955 218.207 52.2815C218.646 52.0676 219.133 51.9602 219.666 51.9594C220.6 51.958 221.38 52.1969 222.007 52.6759C222.648 53.155 223.089 53.8077 223.33 54.634ZM221.757 59.6963C221.903 59.4028 222.009 59.0759 222.075 58.7158C222.155 58.3424 222.194 57.829 222.193 57.1757C222.192 56.549 222.165 56.0624 222.111 55.7158C222.057 55.3559 221.964 55.036 221.83 54.7562C221.669 54.2764 221.382 53.8969 220.968 53.6175C220.568 53.3381 220.088 53.1988 219.528 53.1996C218.995 53.2004 218.548 53.341 218.188 53.6216C217.829 53.9021 217.563 54.2758 217.39 54.7427C217.27 55.0096 217.184 55.3231 217.131 55.6831C217.078 56.0432 217.052 56.5432 217.053 57.1832C217.054 57.8232 217.081 58.3299 217.135 58.7031C217.189 59.063 217.283 59.3829 217.417 59.6627C217.577 60.1158 217.838 60.4821 218.198 60.7616C218.572 61.0277 219.012 61.1604 219.519 61.1596C220.052 61.1588 220.512 61.0248 220.898 60.7576C221.298 60.4903 221.584 60.1366 221.757 59.6963ZM226.715 62.229C226.582 62.2292 226.515 62.1626 226.515 62.0293L226.497 48.4293C226.497 48.296 226.563 48.2292 226.696 48.229L227.716 48.2275C227.85 48.2273 227.917 48.2939 227.917 48.4272L227.935 62.0272C227.935 62.1605 227.868 62.2273 227.735 62.2275L226.715 62.229ZM234.611 51.9373C235.811 51.9356 236.738 52.2409 237.392 52.8532C238.046 53.4656 238.374 54.2785 238.375 55.2918L238.384 62.0118C238.384 62.1451 238.318 62.2119 238.184 62.2121L237.164 62.2136C237.031 62.2138 236.964 62.1472 236.964 62.0139L236.963 61.1939C236.963 61.1672 236.95 61.1472 236.923 61.1339C236.91 61.1206 236.89 61.1273 236.863 61.154C236.53 61.5545 236.097 61.8618 235.564 62.0759C235.031 62.2767 234.438 62.3776 233.785 62.3786C232.838 62.38 232.044 62.1411 231.404 61.6621C230.763 61.183 230.442 60.4502 230.441 59.4635C230.439 58.4635 230.798 57.6763 231.518 57.1019C232.25 56.5142 233.263 56.2193 234.556 56.2174L236.876 56.214C236.93 56.2139 236.956 56.1872 236.956 56.1339L236.955 55.3739C236.954 54.6939 236.76 54.1608 236.373 53.7747C235.999 53.3753 235.412 53.1762 234.612 53.1773C233.972 53.1783 233.453 53.3057 233.053 53.5596C232.653 53.8002 232.407 54.1406 232.314 54.5807C232.274 54.7141 232.195 54.7742 232.075 54.7611L230.994 54.6227C230.848 54.5962 230.788 54.543 230.814 54.4629C230.92 53.7161 231.319 53.1089 232.012 52.6412C232.704 52.1735 233.571 51.9389 234.611 51.9373ZM234.063 61.1582C234.85 61.157 235.529 60.9627 236.102 60.5751C236.675 60.1743 236.961 59.6405 236.96 58.9739L236.958 57.4139C236.958 57.3605 236.931 57.3339 236.878 57.334L234.778 57.3371C233.898 57.3384 233.192 57.5194 232.659 57.8802C232.126 58.241 231.86 58.7414 231.861 59.3814C231.861 59.9681 232.062 60.4144 232.462 60.7205C232.876 61.0132 233.41 61.1591 234.063 61.1582ZM245.16 62.3618C244.2 62.3632 243.373 62.1178 242.679 61.6254C241.998 61.1198 241.53 60.4405 241.276 59.5875C241.102 59.0011 241.014 58.1746 241.013 57.1079C241.011 56.1479 241.097 55.3344 241.269 54.6675C241.508 53.8405 241.974 53.1798 242.667 52.6855C243.359 52.1778 244.186 51.9232 245.146 51.9218C246.119 51.9204 246.959 52.1658 247.667 52.6581C248.387 53.1503 248.855 53.763 249.069 54.496C249.136 54.7359 249.176 54.9358 249.19 55.0958L249.19 55.1358C249.19 55.2292 249.13 55.2892 249.01 55.3161L248.01 55.4576L247.97 55.4576C247.877 55.4578 247.817 55.3979 247.79 55.2779L247.73 54.978C247.609 54.4715 247.315 54.0453 246.848 53.6993C246.381 53.34 245.814 53.1608 245.147 53.1618C244.481 53.1628 243.921 53.3436 243.468 53.7043C243.028 54.0516 242.742 54.5187 242.61 55.1055C242.491 55.6124 242.431 56.2858 242.433 57.1258C242.434 58.0058 242.495 58.6857 242.615 59.1655C242.749 59.7653 243.037 60.2449 243.477 60.6043C243.931 60.9503 244.491 61.1228 245.158 61.1218C245.811 61.1208 246.371 60.9533 246.837 60.6193C247.317 60.2719 247.616 59.8315 247.735 59.298L247.735 59.218L247.755 59.1379C247.768 59.0046 247.848 58.9511 247.995 58.9776L248.975 59.1361C249.109 59.1626 249.169 59.2359 249.156 59.3559L249.076 59.756C248.877 60.5296 248.418 61.157 247.699 61.638C246.979 62.1191 246.133 62.3603 245.16 62.3618ZM259.422 55.4207C259.476 55.794 259.503 56.2606 259.504 56.8206L259.505 57.4606C259.505 57.5939 259.439 57.6607 259.305 57.6609L252.845 57.6704C252.792 57.6705 252.765 57.6972 252.765 57.7506C252.793 58.4838 252.834 58.9571 252.887 59.1704C253.035 59.7702 253.349 60.243 253.829 60.589C254.31 60.9349 254.923 61.1074 255.67 61.1063C256.23 61.1054 256.723 60.9781 257.149 60.7241C257.576 60.4701 257.909 60.1096 258.148 59.6426C258.228 59.5225 258.321 59.4957 258.428 59.5622L259.208 60.0211C259.315 60.0876 259.342 60.1809 259.289 60.3009C258.956 60.9414 258.457 61.4488 257.791 61.8231C257.125 62.1841 256.358 62.3653 255.492 62.3665C254.545 62.3546 253.751 62.1291 253.111 61.69C252.47 61.251 252.009 60.6383 251.728 59.8521C251.487 59.2124 251.366 58.2926 251.365 57.0926C251.364 56.5326 251.37 56.0793 251.383 55.7326C251.409 55.3726 251.462 55.0525 251.541 54.7724C251.767 53.9054 252.219 53.2114 252.899 52.6904C253.591 52.1693 254.424 51.9081 255.398 51.9067C256.611 51.9049 257.545 52.2102 258.199 52.8225C258.853 53.4349 259.261 54.301 259.422 55.4207ZM255.399 53.1467C254.746 53.1476 254.199 53.3218 253.76 53.6691C253.334 54.003 253.054 54.4568 252.922 55.0303C252.842 55.3104 252.789 55.7639 252.764 56.3906C252.764 56.4439 252.79 56.4705 252.844 56.4704L258.024 56.4628C258.077 56.4627 258.104 56.436 258.104 56.3827C258.076 55.7827 258.036 55.3561 257.982 55.1029C257.834 54.5031 257.534 54.0302 257.08 53.6842C256.64 53.3248 256.079 53.1457 255.399 53.1467Z" fill="#03985C"/>
<path d="M63.5712 30.4384L59.4494 12.6039H59.3701L55.2484 30.4384H48.9072L41.7734 2.93359H48.9072L52.5534 20.8474H52.6327L56.6752 2.93359H62.0651L66.0284 20.9266H66.1076L69.833 2.93359H76.9668L69.6745 30.4384H63.5712Z" fill="#03985C"/>
<path d="M93.694 30.4393V28.2199H93.6148C92.7428 30.043 90.2857 31.1527 87.5114 31.1527C81.408 31.1527 77.207 26.3176 77.207 20.135C77.207 14.0316 81.6458 9.11719 87.5114 9.11719C90.0479 9.11719 92.3465 10.1476 93.6148 12.05H93.694V9.83059H99.8767V30.4393H93.694ZM93.694 20.0557C93.694 17.1229 91.3161 14.8242 88.4626 14.8242C85.609 14.8242 83.3896 17.2022 83.3896 20.135C83.3896 22.9885 85.6883 25.3664 88.5418 25.3664C91.4746 25.3664 93.694 23.0677 93.694 20.0557Z" fill="#03985C"/>
<path d="M113.189 15.6169C113.189 14.4279 112.317 14.0316 111.286 14.0316C110.256 14.0316 109.463 14.6657 109.463 15.3791C109.463 16.4888 110.494 17.0436 113.347 17.8363C118.262 19.1045 119.847 21.0861 119.847 24.0982C119.847 28.3785 116.122 31.1527 111.445 31.1527C106.768 31.1527 103.519 28.537 103.043 24.336H109.146C109.305 25.6042 110.256 26.2383 111.524 26.2383C112.634 26.2383 113.664 25.6042 113.664 24.653C113.664 23.4641 112.951 22.9092 109.86 21.958C104.628 20.3727 103.281 18.3119 103.281 15.8547C103.281 11.7329 107.085 9.11719 111.286 9.11719C115.725 9.11719 118.896 11.5744 119.213 15.6169H113.189Z" fill="#03985C"/>
<path d="M124.207 30.4384V14.5062H121.195V9.82961H124.207V2.93359H130.39V9.82961H133.402V14.5062H130.39V30.4384H124.207Z" fill="#03985C"/>
<path d="M140.455 21.9572C140.772 24.3351 142.754 25.8412 145.29 25.8412C146.955 25.8412 148.064 25.207 149.015 23.9388H155.357C153.375 28.4569 149.65 31.0726 145.29 31.0726C139.345 31.0726 134.352 26.2375 134.352 20.1341C134.352 14.1893 139.107 9.03711 145.211 9.03711C151.393 9.03711 156.149 13.8722 156.149 20.2926C156.149 20.9268 156.149 21.4024 155.991 21.9572H140.455ZM149.887 17.8354C149.412 15.6953 147.509 14.2685 145.132 14.2685C142.912 14.2685 140.93 15.616 140.455 17.8354H149.887Z" fill="#03985C"/>
<path d="M163.047 30.4384V9.11621H157.578V2.93359H175.413V9.11621H170.023V30.4384H163.047Z" fill="#03985C"/>
<path d="M176.922 30.4393V9.83059H182.708V12.05H182.787C183.897 9.83058 185.562 9.11719 187.94 9.11719V15.2998C184.293 15.2998 183.105 16.7266 183.105 19.0252V30.4393H176.922Z" fill="#03985C"/>
<path d="M205.694 30.4393V28.2199H205.615C204.743 30.043 202.286 31.1527 199.511 31.1527C193.408 31.1527 189.207 26.3176 189.207 20.135C189.207 14.0316 193.646 9.11719 199.511 9.11719C202.048 9.11719 204.347 10.1476 205.615 12.05H205.694V9.83059H211.877V30.4393H205.694ZM205.694 20.0557C205.694 17.1229 203.316 14.8242 200.463 14.8242C197.609 14.8242 195.39 17.2022 195.39 20.135C195.39 22.9885 197.688 25.3664 200.542 25.3664C203.395 25.3664 205.694 23.0677 205.694 20.0557Z" fill="#03985C"/>
<path d="M232.008 30.4384V28.2189H231.928C230.739 30.1213 228.679 31.1517 225.746 31.1517C219.484 31.1517 215.441 26.3166 215.441 20.134C215.441 13.9514 219.642 9.19548 225.667 9.19548C228.044 9.19548 229.947 9.90886 231.77 11.6527V2.93359H237.953V30.4384H232.008ZM232.008 19.9754C232.008 17.1219 229.788 14.8233 226.776 14.8233C223.843 14.8233 221.545 16.9634 221.545 19.9754C221.545 23.0668 223.764 25.2862 226.697 25.2862C229.788 25.3654 232.008 23.0668 232.008 19.9754Z" fill="#03985C"/>
<path d="M247.306 21.9572C247.624 24.3351 249.605 25.8412 252.142 25.8412C253.806 25.8412 254.916 25.207 255.867 23.9388H262.208C260.227 28.4569 256.501 31.0726 252.142 31.0726C246.197 31.0726 241.203 26.2375 241.203 20.1341C241.203 14.1893 245.959 9.03711 252.062 9.03711C258.245 9.03711 263.001 13.8722 263.001 20.2926C263.001 20.9268 263.001 21.4024 262.842 21.9572H247.306ZM256.739 17.8354C256.263 15.6953 254.361 14.2685 251.983 14.2685C249.764 14.2685 247.782 15.616 247.306 17.8354H256.739Z" fill="#03985C"/>
<path d="M18.2308 31.3086H15.2188V38.2046H18.2308V31.3086Z" fill="#03985C"/>
<path d="M3.09132 14.9017H15.2188V3.01206C8.87761 3.56691 3.8047 8.56057 3.09132 14.9017ZM18.1516 17.8345H0V16.4077C0 7.3716 7.37159 0 16.4077 0C16.487 0 16.5663 0 16.7248 0L18.1516 0.0792693V17.8345Z" fill="#03985C"/>
<path d="M3.09132 17.8351C3.8047 24.5726 9.51173 29.804 16.487 29.804C16.5663 29.804 16.6455 29.804 16.6455 29.804C23.4623 29.7248 29.0108 24.4933 29.8034 17.8351H3.09132ZM16.4077 32.8161C7.37159 32.8161 0 25.4445 0 16.4084V14.9023H32.8155V16.4084C32.8155 25.286 25.6024 32.6576 16.6455 32.8161C16.6455 32.8161 16.5663 32.8161 16.4077 32.8161Z" fill="#03985C"/>
</svg>
