<svg width="26" height="26" viewBox="0 0 26 26" fill="none" xmlns="http://www.w3.org/2000/svg">
<path d="M13 26C20.1797 26 26 20.1797 26 13C26 5.8203 20.1797 0 13 0C5.8203 0 0 5.8203 0 13C0 20.1797 5.8203 26 13 26Z" fill="#EBFFF7"/>
<path d="M17.5622 11.5931C17.5196 11.5505 17.5196 11.5505 17.5196 11.4653C17.7327 10.7833 17.7753 10.1013 17.6901 9.41936C17.5196 8.31116 16.9228 7.33083 16.0278 6.60624C15.1753 5.88165 14.0245 5.49805 12.9163 5.49805C12.6606 5.49805 12.4474 5.49805 12.1917 5.54067C10.7851 5.75378 9.54908 6.56362 8.78186 7.75706C8.05727 8.90788 7.92941 10.2718 8.31301 11.5079C8.35564 11.6358 8.35564 11.6784 8.27039 11.7636C7.16219 12.9997 6.65072 14.5767 6.86383 16.1964C7.03432 17.8161 7.88678 19.2653 9.25072 20.2882C9.37859 20.3735 9.5917 20.4587 9.76219 20.4587C10.4015 20.4587 11.0409 20.4587 11.5097 20.4587C11.7655 20.4587 11.9786 20.4587 12.2343 20.4587C12.4901 20.4587 12.7032 20.4587 12.9589 20.4587H14.4507C14.9622 20.4587 15.6015 20.4587 16.2835 20.4587C16.3688 20.4587 16.5392 20.4587 16.7097 20.3308C18.1589 19.2653 19.0114 17.8587 19.1819 16.1538C19.3097 14.4489 18.7556 12.9144 17.5622 11.5931ZM11.254 8.39641C11.6802 8.0128 12.2769 7.79969 12.9163 7.79969C13.3851 7.79969 13.8114 7.92756 14.195 8.14067C14.9196 8.5669 15.431 9.41936 15.3884 10.1439C14.5786 9.84559 13.7688 9.6751 13.0015 9.6751C12.1491 9.6751 11.2966 9.84559 10.4442 10.1866C10.4015 9.6751 10.7425 8.86526 11.254 8.39641Z" fill="#03985C"/>
</svg>
