<svg width="26" height="26" viewBox="0 0 26 26" fill="none" xmlns="http://www.w3.org/2000/svg">
<path d="M13 26C20.1797 26 26 20.1797 26 13C26 5.8203 20.1797 0 13 0C5.8203 0 0 5.8203 0 13C0 20.1797 5.8203 26 13 26Z" fill="#E5F6F0"/>
<path d="M13 21V14.3333M13 21L7.85921 17.43C7.43825 17.1377 7.22777 16.9915 7.11389 16.7738C7 16.556 7 16.2998 7 15.7873V10.1667M13 21L18.1408 17.43C18.5617 17.1377 18.7722 16.9915 18.8861 16.7738C19 16.556 19 16.2998 19 15.7873V10.1667M13 14.3333L7 10.1667M13 14.3333L19 10.1667M7 10.1667L11.8592 6.79222C12.411 6.40906 12.6868 6.21748 13 6.21748C13.3132 6.21748 13.589 6.40906 14.1408 6.79222L19 10.1667" stroke="#06985C" stroke-width="2" stroke-linejoin="round"/>
</svg>
