<svg width="26" height="26" viewBox="0 0 26 26" fill="none" xmlns="http://www.w3.org/2000/svg">
<path d="M13 26C20.1797 26 26 20.1797 26 13C26 5.8203 20.1797 0 13 0C5.8203 0 0 5.8203 0 13C0 20.1797 5.8203 26 13 26Z" fill="#E5F6F0"/>
<path d="M17.5622 11.5935C17.5196 11.5509 17.5196 11.5509 17.5196 11.4656C17.7327 10.7837 17.7753 10.1017 17.6901 9.41972C17.5196 8.31153 16.9228 7.3312 16.0278 6.60661C15.1753 5.88202 14.0245 5.49841 12.9163 5.49841C12.6606 5.49841 12.4474 5.49841 12.1917 5.54104C10.7851 5.75415 9.54908 6.56399 8.78186 7.75743C8.05727 8.90825 7.92941 10.2722 8.31301 11.5082C8.35564 11.6361 8.35564 11.6787 8.27039 11.764C7.16219 13.0001 6.65072 14.5771 6.86383 16.1968C7.03432 17.8164 7.88678 19.2656 9.25072 20.2886C9.37859 20.3738 9.5917 20.4591 9.76219 20.4591C10.4015 20.4591 11.0409 20.4591 11.5097 20.4591C11.7655 20.4591 11.9786 20.4591 12.2343 20.4591C12.4901 20.4591 12.7032 20.4591 12.9589 20.4591H14.4507C14.9622 20.4591 15.6015 20.4591 16.2835 20.4591C16.3688 20.4591 16.5392 20.4591 16.7097 20.3312C18.1589 19.2656 19.0114 17.8591 19.1819 16.1542C19.3097 14.4492 18.7556 12.9148 17.5622 11.5935ZM11.254 8.39677C11.6802 8.01317 12.2769 7.80005 12.9163 7.80005C13.3851 7.80005 13.8114 7.92792 14.195 8.14104C14.9196 8.56727 15.431 9.41972 15.3884 10.1443C14.5786 9.84595 13.7688 9.67546 13.0015 9.67546C12.1491 9.67546 11.2966 9.84595 10.4442 10.1869C10.4015 9.67546 10.7425 8.86563 11.254 8.39677Z" fill="#06985C"/>
</svg>
