<svg width="26" height="26" viewBox="0 0 26 26" fill="none" xmlns="http://www.w3.org/2000/svg">
<path d="M13 26C20.1797 26 26 20.1797 26 13C26 5.8203 20.1797 0 13 0C5.8203 0 0 5.8203 0 13C0 20.1797 5.8203 26 13 26Z" fill="#FF7B00"/>
<path d="M10.2012 6.47266C10.3226 6.59409 10.3994 6.76481 10.3994 6.94922L10.3857 7.09277L9.95898 9.14844H12.7969C13.2915 9.14851 13.6963 9.55318 13.6963 10.0479V10.9473C13.6963 11.064 13.6741 11.1721 13.6338 11.2754L12.2754 14.4463C12.1405 14.7701 11.8206 14.9951 11.4473 14.9951H7.39941C6.90472 14.9951 6.5 14.5904 6.5 14.0957V9.59766C6.50013 9.35048 6.59894 9.12568 6.76074 8.96387L9.72461 6L10.2012 6.47266ZM7.39844 9.60059V14.0986H11.4463L12.7959 10.9502V10.0508H8.74805L9.35059 7.64844L7.39844 9.60059Z" fill="white"/>
<path d="M16.7988 19.3828C16.6774 19.2614 16.6006 19.0907 16.6006 18.9062L16.6143 18.7627L17.041 16.707H14.2031C13.7085 16.707 13.3037 16.3023 13.3037 15.8076V14.9082C13.3037 14.7914 13.3259 14.6834 13.3662 14.5801L14.7246 11.4092C14.8595 11.0853 15.1794 10.8604 15.5527 10.8604H19.6006C20.0953 10.8604 20.5 11.2651 20.5 11.7598V16.2578C20.4999 16.505 20.4011 16.7298 20.2393 16.8916L17.2754 19.8555L16.7988 19.3828ZM19.6016 16.2549V11.7568H15.5537L14.2041 14.9053V15.8047H18.252L17.6494 18.207L19.6016 16.2549Z" fill="white"/>
</svg>
